<svg enable-background="new 0 0 1074.4 584.2" viewBox="0 0 1074.4 584.2" xmlns="http://www.w3.org/2000/svg"><ellipse cx="540.6" cy="549.3" fill="#f2f2f2" rx="527.5" ry="34.9"/><path d="m520.4 167c-85.9 0-147.7 55.1-147.7 183.8 0 145.8 61.7 184.4 147.7 184.4s151.3-42.3 151.3-184.4c.1-151.9-65.3-183.8-151.3-183.8zm.6 319.8c-59.5 0-90.6-34.9-90.6-135.9 0-89.1 32.4-136.1 91.9-136.1s91.9 30.9 91.9 136.1c0 98.4-33.7 135.9-93.2 135.9z" fill="#f73e56"/><path d="m321.3 433.5h-35.5v-104.6c0-11.6-9.4-21-21-21h-8.3c-11.6 0-21 9.4-21 21v104.6h-100.2c-6.6 0-12-5.4-12-12 0-1.9.5-3.9 1.4-5.6l106.1-200.8c5.4-10.2 1.5-22.9-8.7-28.3-.3-.1-.6-.3-.8-.4l-6.3-3c-10.1-4.8-22.2-.8-27.4 9.1l-129.4 242c-2.2 4.1-3.4 8.7-3.4 13.4 0 15.7 12.7 28.4 28.4 28.4h152.3v66.2c0 13.9 11.2 25.1 25.1 25.1s25.1-11.2 25.1-25.1v-66.2h35.5c11.8 0 21.4-9.6 21.4-21.4.2-11.8-9.4-21.4-21.3-21.4z" fill="#fff"/><path d="m979.3 433.5h-35.5v-104.6c0-11.6-9.4-21-21-21h-8.3c-11.6 0-21 9.4-21 21v104.6h-100.2c-6.6 0-12-5.4-12-12 0-1.9.5-3.9 1.4-5.6l106.1-200.8c5.4-10.2 1.5-22.9-8.7-28.3-.3-.1-.6-.3-.8-.4l-6.3-3c-10.1-4.8-22.2-.8-27.4 9.1l-129.4 242c-2.2 4.1-3.4 8.7-3.4 13.4 0 15.7 12.7 28.4 28.4 28.4h152.3v66.2c0 13.9 11.2 25.1 25.1 25.1s25.1-11.2 25.1-25.1v-66.2h35.5c11.8 0 21.4-9.6 21.4-21.4.2-11.8-9.4-21.4-21.3-21.4z" fill="#fff"/><g fill="none" stroke="#3f3d56" stroke-miterlimit="10"><path d="m331.1 421.3h-35.5v-104.7c0-11.6-9.4-21-21-21h-8.3c-11.6 0-21 9.4-21 21v104.6h-100.2c-6.6 0-12-5.4-12-12 0-1.9.5-3.9 1.4-5.6l106.1-200.8c5.4-10.2 1.5-22.9-8.7-28.3-.3-.1-.6-.3-.8-.4l-6.3-3c-10.1-4.8-22.2-.8-27.4 9.1l-129.4 242.1c-2.2 4.1-3.4 8.7-3.4 13.4 0 15.7 12.7 28.4 28.4 28.4h152.3v66.2c0 13.9 11.2 25.1 25.1 25.1s25.1-11.2 25.1-25.1v-66.2h35.5c11.8 0 21.4-9.6 21.4-21.4.2-11.8-9.4-21.4-21.3-21.4z"/><path d="m997.7 421.3h-35.5v-104.7c0-11.6-9.4-21-21-21h-8.3c-11.6 0-21 9.4-21 21v104.6h-100.2c-6.6 0-12-5.4-12-12 0-1.9.5-3.9 1.4-5.6l106.1-200.8c5.4-10.2 1.5-22.9-8.7-28.3-.3-.1-.6-.3-.8-.4l-6.3-3c-10.1-4.8-22.2-.8-27.4 9.1l-129.4 242c-2.2 4.1-3.4 8.7-3.4 13.4 0 15.7 12.7 28.4 28.4 28.4h152.3v66.2c0 13.9 11.2 25.1 25.1 25.1s25.1-11.2 25.1-25.1v-66.2h35.5c11.8 0 21.4-9.6 21.4-21.4.1-11.7-9.5-21.3-21.3-21.3z"/><path d="m540 156c-85.9 0-147.7 55.1-147.7 183.8 0 145.8 61.7 184.4 147.7 184.4s151.3-42.3 151.3-184.4c.1-152-65.3-183.8-151.3-183.8zm.6 319.8c-59.5 0-90.6-34.9-90.6-135.9 0-89.1 32.4-136.1 91.9-136.1s91.9 30.9 91.9 136.1c0 98.4-33.7 135.9-93.2 135.9z"/></g><circle cx="471.1" cy="18.3" fill="#2f2e41" r="12.9"/><ellipse cx="502.6" cy="46.9" fill="#2f2e41" rx="36.2" ry="46.9"/><path d="m502.6 79.6c-18.1 0-33.1-17.3-35.8-39.8-.3 2.4-.4 4.7-.4 7.1 0 25.9 16.2 46.9 36.2 46.9s36.2-21 36.2-46.9c0-2.4-.1-4.7-.4-7.1-2.7 22.5-17.7 39.8-35.8 39.8z" opacity=".1"/><path d="m576.2 184.2c-.8 3.2-4.1 5.8-7.8 7.5-7.8 3.8-17.4 4.9-26.8 5.3-2.4.1-4.8.1-7.1-.1-4.6-.4-8.9-2.4-12.3-5.6-.8-.5-1-1.5-.5-2.3.1-.2.3-.4.5-.5 5-5.5 13.3-8.8 21.6-11.2 6.3-1.8 17.4-6.6 24.3-5.9 6.8.5 9.1 8.8 8.1 12.8z" fill="#3f3d56"/><path d="m576.2 184.2c-.8 3.2-4.1 5.8-7.8 7.5-7.8 3.8-17.4 4.9-26.8 5.3-2.4.1-4.8.1-7.1-.1-4.6-.4-8.9-2.4-12.3-5.6-.8-.5-1-1.5-.5-2.3.1-.2.3-.4.5-.5 5-5.5 13.3-8.8 21.6-11.2 6.3-1.8 17.4-6.6 24.3-5.9 6.8.5 9.1 8.8 8.1 12.8z" opacity=".1"/><path d="m477 160.3c-2.4 4.7-2.8 10.1-1.2 15.1 1.6 4.9 4.7 9.3 8.8 12.5 10.1 8.1 24 9.2 36.9 9.1 11.3-.1 22.7-.9 33.9-2.3 3.8-.3 7.5-1.2 11-2.6 4.2-1.8 7.9-5.2 9.4-9.5s.4-9.7-3.1-12.6c-3.1-2.5-7.5-2.9-11.5-3.1l-23.1-1.4c2.3-2.3 5.3-3.6 8.1-5.3 3.7-2.2 6.1-6 8.8-9.3 4.1-4.9 8.6-9.6 13.4-13.8.8 4.3 3.5 7.8 6.7 10.8s6.9 5.4 10.2 8.2c8.1 6.9 13.9 16.2 22.4 22.5 5.8-1.5 11.3-4.3 16-8l-3.3-6c-.3-.6-.7-1.2-1.2-1.6-.9-.6-2.1-.3-3.2-.4-2.9-.4-4.2-3.8-5.3-6.5-3.1-7.4-9.1-13.2-14.2-19.4-3.8-4.6-7.1-9.5-10-14.7-1.7-3.1-3.3-6.3-5.6-9s-5.6-4.8-9.1-4.8c-3.1 0-6 1.6-8.7 3.2-8.2 4.9-16.1 10.2-23.6 16.1-3.9 3.1-7.9 6.3-12.5 8.2-1.9.8-4 1.3-5.9 2.3-3.3 1.7-5.8 4.5-8.4 7.1-9.5 8.9-22.5 14.8-35.7 15.2z" fill="#3f3d56"/><path d="m525.3 96.1c-.1 2.8-.7 5.5-1.7 8-1.1 2.6-3.2 4.6-5.8 5.6-1.8.5-3.8.6-5.6.2-1.6-.2-3.2-.7-4.6-1.6-2.2-1.5-3.2-4.1-3.6-6.7s-.2-5.2-.5-7.9c-.2-2.1-.6-4.2-1.2-6.3-.2-.7-.3-1.4-.5-2-.2-.7-.3-1.4-.5-2-.1-.6-.3-1.3-.4-1.9-.1-.5-.2-1.1-.2-1.6-.1-1.6-.3-3.3-.8-4.8-.5-1-1-2-1.7-2.9-.3-.4-.6-.8-.8-1.2-.7-1.1-1.1-2.4-1-3.7 0-.2.1-.4.1-.6 0-.1.1-.2.1-.2.6-.2 1-.6 1.2-1.1.1-.6.1-1.2-.1-1.8-.2-.8-.6-1.6-1-2.3-.3-.5-1.2-1.3-1.2-1.9 0-1.1 2.1-2 3-2.4 2.7-1.3 5.6-1.9 8.6-1.7 1.9.1 4 .7 5 2.3.9 1.4.8 3.3 1.2 5 0 .2.1.5.3.7s.5.3.7.3c.5.1.9.1 1.4.1.1 0 .2 0 .4-.1.7-.1 1.4-.4 2-.9.4-.1.8-.2 1.2-.3 1.6 5 1.8 10.3 3.1 15.4.6 2.5 1.6 5 1.7 7.6v.3 2.5c0 .4.1.7.1 1.1.1.6.3 1.2.5 1.7.1.2.1.4.2.6 0 .1.1.3.1.4.4 1.3.5 2.7.3 4.1z" fill="#fbbebe"/><ellipse cx="503.2" cy="45" fill="#fbbebe" rx="18.6" ry="18.6" transform="matrix(.2238 -.9746 .9746 .2238 346.7181 525.363)"/><path d="m621.1 146.1c-.5-5.1-2.3-9.9-5.2-14.1.5 2.9 1 5.7 1.4 8.6-1.2.4-2.6-.1-3.4-1-.8-1-1.4-2.1-1.8-3.3-2.1-5.2-4.9-10.2-8.2-14.7-11.8-1-23.5-5.9-33.9-11.6s-20.1-12.6-30.4-18.5c-1.8-1.1-3.6-2-5.5-2.8-3.2-1.3-6.8-2-9.9-3.5-.2-.1-.4-.2-.6-.3-.7-.4-1.3-.8-1.9-1.3-.3-.3-.6-.6-.9-.9-1.5-1.8-2.7-3.8-3.6-6-1.6-3.6-2.2-8-3.8-11.6.7-.7 1.6-1.3 2.5-1.8.1-.1.3-.1.4-.2.6-.3 1.3-.5 2-.7.4-.1.8-.2 1.2-.3 1.8-.3 3.7-.2 5.5.4 2.6.9 4.8 2.6 6.9 4.3 3.5 2.5 6.9 5.2 10.1 8 1.8 1.7 3.4 3.6 5.4 5.2 1.6 1.2 3.3 2.4 5.1 3.4 10.4 6.2 20.9 12.4 31.3 18.7 3.5 2.1 7.1 4.2 10.5 6.4 5.2 3.4 10.3 7.1 15.4 10.7 3 2.2 6 4.3 8.9 6.5 1 .6 1.8 1.4 2.5 2.3.6 1.1 1 2.2 1.1 3.4.9 5 .5 10-1.1 14.7z" fill="#fbbebe"/><path d="m529.9 110.1c-1.3 5.6-6.9 9-9.9 13.9-3.7 6.1-2.2 13.2-.8 20.3-2.5 2.2-5.1 4.4-7.6 6.5-1.4 1.2-2.8 2.4-4.3 3.5-2.2 1.5-4.5 2.8-6.9 3.9-2.2 1.2-4.5 2.3-6.7 3.5-2.1 1.2-4.3 2.1-6.6 2.8-4.4 1.1-9.1.3-13.5-1-.5-.1-1-.3-1.5-.6-.3-.2-.5-.4-.7-.6-.4-.8-.6-1.7-.4-2.5.4-7.4 2.2-14.5 4-21.7 1-4.3 2.2-8.5 3.8-12.6 1.6-3.5 3.4-6.9 5.4-10.2 2.2-4.1 4.9-8 7.9-11.5 1.5-1.4 2.7-3 3.7-4.7 1.1-2.5.7-5.5.9-8.2.2-2.1.7-4.1 1.6-6 .5-1 1.1-2 1.7-2.9.3.7.6 1.4.9 2.1.2.5.4.9.6 1.4.3.6.5 1.2.8 1.8.7 1.7 1.5 3.4 2.2 5.1.8 2.1 1.9 4.2 3.3 5.9 2.1 2.9 6.1 3.6 9.1 1.6.9-.6 1.6-1.4 2.1-2.4 1.1-1.9 1.8-3.9 2.3-6 .6-2.6.7-5.2.3-7.8-.8-5-2.9-10.1-4.4-14.8-.6-1.6-1-3.2-1.1-4.9 0-.2 0-.4.1-.6v-.1c.6-.3 1.3-.5 2-.7.4-.1.8-.2 1.2-.3 1.4 7.4 2.7 14.8 4.1 22.1 0 .2.1.3.1.5.2 1.1.4 2.1.6 3.2.2 1 .4 1.9.7 2.9.1.3.2.6.3 1 .2.9.5 1.7.8 2.6 1.9 5 5.1 10.1 3.9 15.5z" fill="#fff"/><path d="m605.3 189c-.1 1.1.2 2.2.6 3.1 1.2 2.1 3.9 2.6 6.4 2.8 14.1 1.2 28.3.7 42.3-1.3.8-.1 1.5-.3 2.2-.7 2-1.4.8-4.8-1.4-5.9s-4.8-.8-7.1-1.3c-2.4-.6-4.6-1.6-6.7-2.9-4.8-2.8-9.6-5.7-14.3-8.7-2.8-1.8-6.1-3.7-9.2-2.6-8.7 3-12.9 8.3-12.8 17.5z" fill="#3f3d56"/><path d="m501.4 83c0 .1 0 .3-.1.4 0 .2-.1.4-.1.6-.4 2-.9 4-1.4 6-1.5 5.5-3.5 10.8-5.5 16.1-5.4 14.2-10.8 28.4-16.2 42.6-1.4 3.6-2.7 7.2-4.3 10.7-.5 1.2-1 2.3-1.6 3.5-1.9 4.3-3.7 8.7-4.3 13.2-.6 3-.6 6-.2 9 .6 3 2.4 5.9 5.2 7 1.4.5 3.4 1.3 3 2.7-.2.8-1.1 1.2-1.9 1.3-2.1.3-4.3-.3-6-1.7-1.5-1.3-2.7-3.4-4.7-3.6-1.4-.2-2.7.7-3.9 1.3-5.2 2.4-11.2.7-16.7-1 .4-2.2 2.6-3.7 4.8-4.1s4.5-.1 6.7-.2c.7 0 1.4-.1 2-.5.5-.5.9-1.2 1.1-1.9 1.4-4.3 2.5-8.7 3.2-13.1.7-4.7 1-9.4 2.1-14 .8-3.6 2-7.1 3.1-10.6 2.1-7.3 3.7-14.6 5.1-22.1.7-3.1 1.1-6.2 1.4-9.4.2-2.6.1-5.2.3-7.8.4-3.4 1.1-6.7 2.1-10 1-3.6 1.9-7.1 2.9-10.7 1.4-5.3 3-10.7 6.6-14.8 2.5-2.9 6.2-4.6 10-4.8.7 0 1.4.1 2.1.2.1 0 .2.1.3.1.8.2 1.5.5 2.2.9 1.1-.7 1.7-.5 2.4.6.6 1.2 1 2.5.9 3.8.3 3.4 0 6.9-.6 10.3z" fill="#fbbebe"/><path d="m502.6 87.2-.3.3-2.5 2.5-1.2-5.2-4.3-17.9c.7 0 1.4.1 2.1.2 0-.2.1-.4.1-.6l.2.7 1.4 4.9 2.7 9.3.5 1.5z" fill="#fff"/><path d="m518.7 30.2c0 3.3-1.3 6.5-3.7 8.9-.4.4-.9.8-1.4 1.2-2.2 1.6-4.8 2.5-7.5 2.5h-15.1c-7 0-12.6-5.7-12.6-12.6s5.6-12.6 12.6-12.6h15.1c6.9 0 12.5 5.7 12.6 12.6z" fill="#2f2e41"/><circle cx="532.8" cy="18.3" fill="#2f2e41" r="12.9"/><path d="m532.5 5.3c-.2 0-.3 0-.5 0 7.1.3 12.7 6.2 12.4 13.4-.2 6.8-5.7 12.2-12.4 12.4h.5c7.1 0 12.9-5.8 12.9-12.9s-5.8-12.9-12.9-12.9z" opacity=".1"/><path d="m471.1 5.3h.5c-7.1.3-12.7 6.2-12.4 13.4.2 6.8 5.7 12.2 12.4 12.4-.2 0-.3 0-.5 0-7.1 0-12.9-5.8-12.9-12.9.1-7.1 5.8-12.8 12.9-12.9z" opacity=".1"/><path d="m513.6 40.3c-2.2 1.6-4.8 2.5-7.5 2.5h-15.1c-2.7 0-5.4-.9-7.5-2.5z" opacity=".1"/><path d="m611.1 133.8s3.3 9.4 6.2 6.9l-2.4-12.2z" fill="#fbbebe"/><path d="m1006.9 419.5c10.8 3.9 22.7-1.6 26.7-12.4 3.9-10.8-1.6-22.7-12.4-26.7-3.7-1.3-7.6-1.6-11.5-.8l.5 10.7-5.1-9.2c-5 2.3-8.8 6.6-10.7 11.7-.7 1.8-1.1 3.7-1.2 5.6-.7 9.4 4.9 18 13.7 21.1z" fill="#57b894"/><path d="m1031.9 543.8c-1.8-9.1 6-17.2 13.6-22.4s16.6-10.4 19.2-19.3c3.8-12.8-7.4-24.5-16.1-34.6-6.5-7.5-12-15.7-16.5-24.6-1.8-3.5-3.5-7.2-4-11.2-.7-5.7 1.1-11.3 3-16.7 6.1-18 12.7-35.9 19.6-53.7" fill="none" stroke="#3f3d56" stroke-miterlimit="10"/><path d="m1007.7 416.8c10.8 3.9 22.7-1.6 26.7-12.4 3.9-10.8-1.6-22.7-12.4-26.7-3.7-1.3-7.6-1.6-11.5-.8l.5 10.7-5.1-9.2c-5 2.3-8.8 6.6-10.7 11.7-.7 1.8-1.1 3.7-1.2 5.6-.6 9.3 5 17.9 13.7 21.1z" fill="none" stroke="#3f3d56" stroke-miterlimit="10"/><path d="m1029.4 357.6c2.4-6.7 8.1-11.6 15-13.2l1.7 10.2 3.2-10.7c11.5.2 20.7 9.6 20.5 21.1s-9.6 20.7-21.1 20.5-20.7-9.6-20.5-21.1c0-2.3.4-4.6 1.2-6.8z" fill="#57b894"/><path d="m1030.5 353.9c2.4-6.7 8.1-11.6 15-13.2l1.7 10.2 3.2-10.7c11.5.2 20.7 9.6 20.5 21.1s-9.6 20.7-21.1 20.5-20.7-9.6-20.5-21.1c0-2.3.5-4.6 1.2-6.8z" fill="none" stroke="#3f3d56" stroke-miterlimit="10"/><path d="m1045 467.6c10.8 3.9 22.7-1.7 26.7-12.5 3.3-9.1-.1-19.3-8.2-24.6l-2.4 8.2-1.7-10.3s0 0-.1 0c-10.8-3.9-22.7 1.7-26.7 12.5s1.6 22.8 12.4 26.7z" fill="#57b894"/><path d="m1046 463.9c10.8 3.9 22.7-1.7 26.7-12.5 3.3-9.1-.1-19.3-8.2-24.6l-2.4 8.2-1.7-10.3s0 0-.1 0c-10.8-3.9-22.7 1.7-26.7 12.5s1.6 22.8 12.4 26.7z" fill="none" stroke="#3f3d56" stroke-miterlimit="10"/><path d="m1023.3 502.2c2 11.3 12.8 18.9 24.1 16.9s18.9-12.8 16.9-24.1-12.8-18.9-24.1-16.9c-5.1.9-9.7 3.7-12.9 7.8l9.3 14-12.7-7.4c-.9 3.1-1.2 6.4-.6 9.7z" fill="#57b894"/><path d="m1024.2 499.4c2 11.3 12.8 18.9 24.1 16.9s18.9-12.8 16.9-24.1-12.8-18.9-24.1-16.9c-5.1.9-9.7 3.7-12.9 7.8l9.3 14-12.7-7.4c-1 3.1-1.2 6.5-.6 9.7z" fill="none" stroke="#3f3d56" stroke-miterlimit="10"/><path d="m9 470.2c7.1 2.6 14.9-1.1 17.5-8.2s-1.1-14.9-8.2-17.5c-2.4-.9-5-1.1-7.5-.5l.3 7-3.3-6c-3.3 1.5-5.8 4.3-7 7.7-.4 1.2-.7 2.4-.8 3.7-.4 6.1 3.3 11.8 9 13.8z" fill="#57b894"/><path d="m25.5 551.9c-1.2-6 3.9-11.3 8.9-14.7s10.9-6.8 12.6-12.7c2.5-8.4-4.9-16.1-10.6-22.8-4.2-4.9-7.9-10.3-10.9-16.1-1.3-2.3-2.2-4.8-2.6-7.3-.5-3.7.7-7.4 2-11 4-11.8 8.3-23.6 12.9-35.2" fill="none" stroke="#3f3d56" stroke-miterlimit="10"/><path d="m9.6 468.4c7.1 2.6 14.9-1.1 17.5-8.2s-1.1-14.9-8.2-17.5c-2.4-.9-5-1.1-7.5-.5l.3 7-3.3-6c-3.3 1.5-5.8 4.3-7 7.7-.4 1.2-.7 2.4-.8 3.7-.4 6.1 3.2 11.8 9 13.8z" fill="none" stroke="#3f3d56" stroke-miterlimit="10"/><path d="m23.8 429.5c1.6-4.4 5.3-7.6 9.8-8.7l1.1 6.7 2.1-7c7.6.1 13.6 6.3 13.5 13.9s-6.3 13.6-13.8 13.5-13.6-6.3-13.5-13.9c0-1.5.3-3 .8-4.5z" fill="#57b894"/><path d="m24.6 427.1c1.6-4.4 5.3-7.6 9.8-8.7l1.1 6.7 2.1-7c7.6.1 13.6 6.3 13.5 13.9s-6.3 13.6-13.9 13.5-13.6-6.3-13.5-13.9c.1-1.5.3-3 .9-4.5z" fill="none" stroke="#3f3d56" stroke-miterlimit="10"/><path d="m34.1 501.8c7.1 2.6 14.9-1.1 17.5-8.2 2.2-6-.1-12.7-5.4-16.1l-1.6 5.4-1.1-6.8c-7.1-2.6-14.9 1.1-17.5 8.2-2.7 7.1.9 14.9 8.1 17.5-.1 0-.1 0 0 0z" fill="#57b894"/><path d="m34.7 499.4c7.1 2.6 14.9-1.1 17.5-8.2 2.2-6-.1-12.7-5.4-16.1l-1.6 5.4-1.1-6.8c-7.1-2.6-14.9 1.1-17.5 8.2-2.7 7.1 1 14.9 8.1 17.5z" fill="none" stroke="#3f3d56" stroke-miterlimit="10"/><path d="m19.8 524.5c1.3 7.4 8.4 12.4 15.8 11.1s12.4-8.4 11.1-15.8-8.4-12.4-15.8-11.1c-3.4.6-6.4 2.4-8.5 5.1l6.1 9.2-8.3-4.9c-.6 2.1-.8 4.3-.4 6.4z" fill="#57b894"/><path d="m20.4 522.7c1.3 7.4 8.4 12.4 15.8 11.1s12.4-8.4 11.1-15.8-8.4-12.4-15.8-11.1c-3.4.6-6.4 2.4-8.5 5.1l6.1 9.2-8.3-4.9c-.7 2.1-.8 4.3-.4 6.4z" fill="none" stroke="#3f3d56" stroke-miterlimit="10"/></svg>