<svg viewBox="0 0 965.64 1024" xmlns="http://www.w3.org/2000/svg"><rect fill="#1e294d" height="1024" rx="207.05" width="965.64"/><path d="m375.61 474.79q-62.91 0-101-39.21t-38.11-103.45q0-65.11 38.1-104.33t101-39.2q62.46 0 100.34 38.54t37.88 105q0 64.25-37.88 103.45t-100.33 39.2zm-80.61 216.21-40.76-60.25 412-294.17 40.76 57.58zm80.63-288.41q26.13 0 42.08-19.49t15.95-50.95q0-32.78-15.95-52.49t-42.08-19.72q-27 0-43 19.72t-15.95 52.49q0 31.46 15.95 50.95t42.98 19.47zm215.29 432.81q-62.91 0-101-39.2t-38.1-103.45q0-65.12 38.1-104.33t101-39.21q62.46 0 100.34 39.21t37.88 104.33q0 64.25-37.88 103.45t-100.34 39.2zm0-72.21q26.13 0 42.08-19.49t16-51q0-32.34-16-51.83t-42.08-19.49q-27 0-43 19.49t-16 51.83q0 31.46 16 51t43 19.49z" fill="#fff"/><rect fill="none" height="966.05" rx="207.05" stroke="#fff" stroke-miterlimit="10" stroke-width="10" width="910.99" x="27.31" y="29.85"/></svg>